<?xml version="1.0" encoding="UTF-8"?>
<svg width="707px" height="100px" viewBox="0 0 707 257" version="1.1" xmlns="http://www.w3.org/2000/svg" xmlns:xlink="http://www.w3.org/1999/xlink">
    <!-- Generator: Sketch 52.6 (67491) - http://www.bohemiancoding.com/sketch -->
    <title>Group 3</title>
    <desc>Created with Sketch.</desc>
    <g stroke="none" stroke-width="1" fill="none" fill-rule="evenodd">
        <g fill="#000000">
            <g>
                <path d="M68.9355469,113.820312 C58.6894019,119.587268 48.5182734,121.847656 39.671875,121.847656 C28.1379632,121.847656 18.773799,117.956419 11.5791016,110.173828 C4.38440413,102.391237 0.787109375,92.425191 0.787109375,80.2753906 C0.787109375,68.5175193 4.18844255,58.5514732 10.9912109,50.3769531 C17.7939793,42.2024331 26.8781984,38.1152344 38.2441406,38.1152344 C48.322316,38.1152344 56.3847354,41.6145483 62.4316406,48.6132812 C68.4785459,55.6120142 71.5019531,64.9901756 71.5019531,76.7480469 L71.5019531,83.3828125 L27.6435547,83.3828125 C27.6435547,83.3828125 26.0322266,91.9637411 29.9951172,97.0722656 C33.9580078,102.18079 39.537122,104.143681 46.1113281,102.953125 C56.5458984,101.063477 59.1884766,98.6523437 62.4316406,97.0722656 L68.9355469,113.820312 Z M48.1542969,69.1894531 L48.1542969,66.5019531 C48.1542969,62.862612 47.2024835,59.7552212 45.2988281,57.1796875 C43.3951728,54.6041538 41.0156393,53.3164062 38.1601562,53.3164062 C34.8007645,53.3164062 32.2112721,54.6321483 30.3916016,57.2636719 C28.571931,59.8951954 27.5221368,63.8704161 27.2421875,69.1894531 L48.1542969,69.1894531 Z M126.175781,2.84179688 L152.966797,2.84179688 L152.966797,120 L129.367188,120 L126.931641,110.677734 C124.412097,114.373065 121.668635,117.158519 118.701172,119.03418 C115.733709,120.90984 112.542335,121.847656 109.126953,121.847656 C101.008423,121.847656 94.4017182,117.690471 89.3066406,109.375977 C84.2115631,101.061482 81.6640625,91.4453671 81.6640625,80.5273438 C81.6640625,69.1614015 84.3935274,59.2513444 89.8525391,50.796875 C95.3115507,42.3424056 102.268187,38.1152344 110.722656,38.1152344 C113.29819,38.1152344 115.873685,38.6611274 118.449219,39.7529297 C121.024752,40.844732 123.600248,42.5104055 126.175781,44.75 L126.175781,2.84179688 Z M126.175781,64.8222656 C124.999994,63.2545495 123.79623,62.07878 122.564453,61.2949219 C121.332676,60.5110638 120.044929,60.1191406 118.701172,60.1191406 C115.621729,60.1191406 113.158212,61.8827949 111.310547,65.4101562 C109.462881,68.9375176 108.539062,73.6126011 108.539062,79.4355469 C108.539062,85.0345332 109.42089,89.6116359 111.18457,93.1669922 C112.948251,96.7223485 115.285793,98.5 118.197266,98.5 C120.716809,98.5 122.676425,97.1982552 124.076172,94.5947266 C125.475918,91.9911979 126.175781,88.8698099 126.175781,85.2304688 L126.175781,64.8222656 Z M183.369141,0.91015625 C187.008482,0.91015625 190.311834,2.2258983 193.279297,4.85742188 C196.24676,7.48894545 197.730469,10.9042759 197.730469,15.1035156 C197.730469,19.0787959 196.316746,22.4381373 193.489258,25.1816406 C190.66177,27.9251439 187.288431,29.296875 183.369141,29.296875 C179.33787,29.296875 175.936537,27.8831522 173.165039,25.0556641 C170.393541,22.228176 169.007812,18.8828318 169.007812,15.0195312 C169.007812,11.1002408 170.435533,7.76889393 173.291016,5.02539062 C176.146499,2.28188732 179.50584,0.91015625 183.369141,0.91015625 Z M169.931641,39.9628906 L196.554688,39.9628906 L196.554688,120 L169.931641,120 L169.931641,39.9628906 Z M221.078125,15.859375 L243.25,15.859375 L243.25,39.9628906 L256.519531,39.9628906 L256.519531,59.53125 L244.425781,59.53125 L244.425781,92.2851562 C244.425781,97.3242439 246.441386,99.84375 250.472656,99.84375 C252.432301,99.84375 254.447906,99.0878982 256.519531,97.5761719 L256.519531,119.244141 C251.592423,120.979826 246.581406,121.847656 241.486328,121.847656 C233.199828,121.847656 227.111022,119.874043 223.219727,115.926758 C219.328431,111.979472 217.382812,105.862672 217.382812,97.5761719 L217.382812,59.53125 L207.556641,59.53125 L207.556641,39.9628906 L218.894531,39.9628906 L221.078125,15.859375 Z M302.878906,38.1152344 C313.908909,38.1152344 322.951137,41.7545209 330.005859,49.0332031 C337.060582,56.3118854 340.587891,66.5018876 340.587891,79.6035156 C340.587891,92.0332653 337.200555,102.181276 330.425781,110.047852 C323.651008,117.914427 314.440813,121.847656 302.794922,121.847656 C291.14903,121.847656 282.078809,117.956419 275.583984,110.173828 C269.08916,102.391237 265.841797,92.48118 265.841797,80.4433594 C265.841797,67.90163 269.24313,57.7116277 276.045898,49.8730469 C282.848667,42.034466 291.792913,38.1152344 302.878906,38.1152344 Z M303.130859,58.6074219 C299.827457,58.6074219 297.335946,60.3850734 295.65625,63.9404297 C293.976554,67.495786 293.136719,72.8287405 293.136719,79.9394531 C293.136719,86.938186 293.962557,92.2011542 295.614258,95.7285156 C297.265959,99.255877 299.743473,101.019531 303.046875,101.019531 C306.406267,101.019531 308.911776,99.2698743 310.563477,95.7705078 C312.215178,92.2711414 313.041016,87.0221704 313.041016,80.0234375 C313.041016,72.856735 312.215178,67.495786 310.563477,63.9404297 C308.911776,60.3850734 306.434261,58.6074219 303.130859,58.6074219 Z M379.304688,50.5449219 C380.928394,46.401672 382.916004,43.2942812 385.267578,41.2226562 C387.619152,39.1510313 390.362615,38.1152344 393.498047,38.1152344 C395.513682,38.1152344 397.669259,38.7311136 399.964844,39.9628906 L399.964844,65.1582031 C397.22134,63.8144464 394.729829,63.1425781 392.490234,63.1425781 C389.074853,63.1425781 386.247407,64.5283065 384.007812,67.2998047 C381.768218,70.0713029 380.648438,73.6126087 380.648438,77.9238281 L380.648438,120 L353.605469,120 L353.605469,39.9628906 L376.617188,39.9628906 L379.304688,50.5449219 Z M423.396484,0.91015625 C427.035825,0.91015625 430.339178,2.2258983 433.306641,4.85742188 C436.274103,7.48894545 437.757812,10.9042759 437.757812,15.1035156 C437.757812,19.0787959 436.34409,22.4381373 433.516602,25.1816406 C430.689113,27.9251439 427.315775,29.296875 423.396484,29.296875 C419.365214,29.296875 415.963881,27.8831522 413.192383,25.0556641 C410.420885,22.228176 409.035156,18.8828318 409.035156,15.0195312 C409.035156,11.1002408 410.462876,7.76889393 413.318359,5.02539062 C416.173842,2.28188732 419.533184,0.91015625 423.396484,0.91015625 Z M409.958984,39.9628906 L436.582031,39.9628906 L436.582031,120 L409.958984,120 L409.958984,39.9628906 Z M457.998047,44.5820312 C467.124395,40.2708118 475.774699,38.1152344 483.949219,38.1152344 C489.996124,38.1152344 495.273089,39.1790258 499.780273,41.3066406 C504.287457,43.4342554 508.080714,46.8775804 511.160156,51.6367188 C514.239599,56.3958571 515.779297,62.4706662 515.779297,69.8613281 L515.779297,96.7363281 C515.779297,104.518919 517.374984,112.273399 520.566406,120 L493.859375,120 C492.851557,117.760405 492.039717,115.212905 491.423828,112.357422 C488.792305,115.492854 486.034845,117.85839 483.151367,119.454102 C480.267889,121.049813 477.230485,121.847656 474.039062,121.847656 C467.824188,121.847656 462.267277,119.370142 457.368164,114.415039 C452.469051,109.459936 450.019531,103.427119 450.019531,96.3164062 C450.019531,80.3033054 463.820826,70.5332208 491.423828,67.0058594 C490.80794,64.0943865 489.296236,61.9108146 486.888672,60.4550781 C484.481108,58.9993417 481.177755,58.2714844 476.978516,58.2714844 C470.819631,58.2714844 464.492871,60.7909904 457.998047,65.8300781 L457.998047,44.5820312 Z M491.423828,80.2753906 C480.225855,81.2832082 474.626953,85.4543904 474.626953,92.7890625 C474.626953,95.5325658 475.466788,97.8561103 477.146484,99.7597656 C478.82618,101.663421 480.813791,102.615234 483.109375,102.615234 C485.796888,102.615234 487.854485,101.467459 489.282227,99.171875 C490.709968,96.8762906 491.423828,93.9928559 491.423828,90.5214844 L491.423828,80.2753906 Z M531.652344,2.84179688 L558.359375,2.84179688 L558.359375,120 L531.652344,120 L531.652344,2.84179688 Z"></path>
                <path d="M63.3398438,248.597656 C55.9335938,256.847656 44.5117465,256.847656 38.96875,256.847656 C29.2265138,256.847656 21.0101246,252.830444 14.3193359,244.795898 C7.62854728,236.761353 4.28320312,226.865293 4.28320312,215.107422 C4.28320312,203.40554 7.71253081,193.481486 14.5712891,185.334961 C21.4300473,177.188436 30.0103652,173.115234 40.3125,173.115234 C44.8476789,173.115234 55.9335938,175.261719 63.3398438,181.679688 L55.9335938,200.578125 C52.2942526,197.946601 49.0468893,196.630859 46.1914063,196.630859 C42.1041462,196.630859 38.6608213,198.31053 35.8613281,201.669922 C33.061835,205.029314 31.6621094,209.284479 31.6621094,214.435547 C31.6621094,219.586614 33.0758322,223.911766 35.9033203,227.411133 C38.7308084,230.910499 42.048158,232.660156 45.8554688,232.660156 C49.1588707,232.660156 52.5182121,231.176447 55.9335938,228.208984 L63.3398438,248.597656 Z M78.3820313,179.582031 C87.508379,175.270812 96.1586831,173.115234 104.333203,173.115234 C110.380108,173.115234 115.657074,174.179026 120.164258,176.306641 C124.671442,178.434255 128.464698,181.87758 131.544141,186.636719 C134.623583,191.395857 136.163281,197.470666 136.163281,204.861328 L136.163281,231.736328 C136.163281,239.518919 137.758968,247.273399 140.950391,255 L114.243359,255 C113.235542,252.760405 112.423701,250.212905 111.807813,247.357422 C109.176289,250.492854 106.41883,252.85839 103.535352,254.454102 C100.651874,256.049813 97.6144691,256.847656 94.4230469,256.847656 C88.2081721,256.847656 82.6512615,254.370142 77.7521484,249.415039 C72.8530354,244.459936 70.4035156,238.427119 70.4035156,231.316406 C70.4035156,215.303305 84.2048099,205.533221 111.807813,202.005859 C111.191924,199.094386 109.68022,196.910815 107.272656,195.455078 C104.865092,193.999342 101.56174,193.271484 97.3625,193.271484 C91.2036151,193.271484 84.8768554,195.79099 78.3820313,200.830078 L78.3820313,179.582031 Z M111.807813,215.275391 C100.60984,216.283208 95.0109375,220.45439 95.0109375,227.789062 C95.0109375,230.532566 95.8507729,232.85611 97.5304688,234.759766 C99.2101647,236.663421 101.197775,237.615234 103.493359,237.615234 C106.180873,237.615234 108.238469,236.467459 109.666211,234.171875 C111.093952,231.876291 111.807813,228.992856 111.807813,225.521484 L111.807813,215.275391 Z M152.336328,137.841797 L179.043359,137.841797 L179.043359,255 L152.336328,255 L152.336328,137.841797 Z M299.436328,183.277344 C301.787902,179.861962 304.461378,177.314462 307.456836,175.634766 C310.452294,173.95507 313.797638,173.115234 317.492969,173.115234 C323.819823,173.115234 329.096789,175.424782 333.324023,180.043945 C337.551258,184.663109 339.664844,190.415981 339.664844,197.302734 L339.664844,255 L313.041797,255 L313.041797,202.845703 C313.041797,198.310524 311.362126,196.042969 308.002734,196.042969 C305.65116,196.042969 303.775528,197.274727 302.375781,199.738281 C300.976035,202.201835 300.276172,205.64516 300.276172,210.068359 L300.276172,255 L273.905078,255 L273.905078,174.962891 L296.832813,174.962891 L299.436328,183.277344 Z M395.578125,137.841797 L422.369141,137.841797 L422.369141,255 L398.769531,255 L396.333984,245.677734 C393.814441,249.373065 391.070978,252.158519 388.103516,254.03418 C385.136053,255.90984 381.944679,256.847656 378.529297,256.847656 C370.410767,256.847656 363.804062,252.690471 358.708984,244.375977 C353.613907,236.061482 351.066406,226.445367 351.066406,215.527344 C351.066406,204.161402 353.795871,194.251344 359.254883,185.796875 C364.713895,177.342406 371.670531,173.115234 380.125,173.115234 C382.700534,173.115234 385.276029,173.661127 387.851563,174.75293 C390.427096,175.844732 393.002591,177.510405 395.578125,179.75 L395.578125,137.841797 Z M395.578125,199.822266 C394.402338,198.254549 393.198574,197.07878 391.966797,196.294922 C390.73502,195.511064 389.447272,195.119141 388.103516,195.119141 C385.024073,195.119141 382.560556,196.882795 380.712891,200.410156 C378.865225,203.937518 377.941406,208.612601 377.941406,214.435547 C377.941406,220.034533 378.823233,224.611636 380.586914,228.166992 C382.350595,231.722349 384.688137,233.5 387.599609,233.5 C390.119153,233.5 392.078769,232.198255 393.478516,229.594727 C394.878262,226.991198 395.578125,223.86981 395.578125,220.230469 L395.578125,199.822266 Z M439.909375,179.582031 C449.035723,175.270812 457.686027,173.115234 465.860547,173.115234 C471.907452,173.115234 477.184418,174.179026 481.691602,176.306641 C486.198786,178.434255 489.992042,181.87758 493.071484,186.636719 C496.150927,191.395857 497.690625,197.470666 497.690625,204.861328 L497.690625,231.736328 C497.690625,239.518919 499.286312,247.273399 502.477734,255 L475.770703,255 C474.762886,252.760405 473.951045,250.212905 473.335156,247.357422 C470.703633,250.492854 467.946173,252.85839 465.062695,254.454102 C462.179217,256.049813 459.141813,256.847656 455.950391,256.847656 C449.735516,256.847656 444.178605,254.370142 439.279492,249.415039 C434.380379,244.459936 431.930859,238.427119 431.930859,231.316406 C431.930859,215.303305 445.732154,205.533221 473.335156,202.005859 C472.719268,199.094386 471.207564,196.910815 468.8,195.455078 C466.392436,193.999342 463.089084,193.271484 458.889844,193.271484 C452.730959,193.271484 446.404199,195.79099 439.909375,200.830078 L439.909375,179.582031 Z M473.335156,215.275391 C462.137184,216.283208 456.538281,220.45439 456.538281,227.789062 C456.538281,230.532566 457.378117,232.85611 459.057813,234.759766 C460.737508,236.663421 462.725119,237.615234 465.020703,237.615234 C467.708217,237.615234 469.765813,236.467459 471.193555,234.171875 C472.621296,231.876291 473.335156,228.992856 473.335156,225.521484 L473.335156,215.275391 Z M537.807031,185.544922 C539.430737,181.401672 541.418348,178.294281 543.769922,176.222656 C546.121496,174.151031 548.864958,173.115234 552.000391,173.115234 C554.016026,173.115234 556.171603,173.731114 558.467188,174.962891 L558.467188,200.158203 C555.723684,198.814446 553.232173,198.142578 550.992578,198.142578 C547.577197,198.142578 544.749751,199.528306 542.510156,202.299805 C540.270562,205.071303 539.150781,208.612609 539.150781,212.923828 L539.150781,255 L512.107813,255 L512.107813,174.962891 L535.119531,174.962891 L537.807031,185.544922 Z M258.148438,248.705078 C247.902293,254.472034 237.731164,256.732422 228.884766,256.732422 C217.350854,256.732422 207.98669,252.841185 200.791992,245.058594 C193.597295,237.276003 190,227.309957 190,215.160156 C190,203.402285 193.401333,193.436239 200.204102,185.261719 C207.00687,177.087199 216.091089,173 227.457031,173 C237.535207,173 245.597626,176.499314 251.644531,183.498047 C257.691436,190.49678 260.714844,199.874941 260.714844,211.632812 L260.714844,218.267578 L216.856445,218.267578 C216.856445,218.267578 215.245117,226.848507 219.208008,231.957031 C223.170898,237.065556 228.750013,239.028446 235.324219,237.837891 C245.758789,235.948242 248.401367,233.537109 251.644531,231.957031 L258.148438,248.705078 Z M236.912109,203.873047 L236.912109,201.185547 C236.912109,197.546206 235.960296,194.438815 234.056641,191.863281 C232.152985,189.287748 229.773452,188 226.917969,188 C223.558577,188 220.969085,189.315742 219.149414,191.947266 C217.329744,194.578789 216.279949,198.55401 216,203.873047 L236.912109,203.873047 Z"></path>
            </g>
            <path d="M566.523438,228.140625 C570.498718,228.140625 573.760078,229.456367 576.307617,232.087891 C578.855156,234.719414 580.128906,237.8548 580.128906,241.494141 C580.128906,245.189472 578.841159,248.338854 576.265625,250.942383 C573.690091,253.545911 570.610695,254.847656 567.027344,254.847656 C563.499982,254.847656 560.448581,253.545911 557.873047,250.942383 C555.297513,248.338854 554.009766,245.217466 554.009766,241.578125 C554.009766,237.770814 555.325508,234.57944 557.957031,232.003906 C560.588555,229.428373 563.443995,228.140625 566.523438,228.140625 Z M604.646484,133.910156 C608.285825,133.910156 611.589178,135.225898 614.556641,137.857422 C617.524103,140.488945 619.007812,143.904276 619.007812,148.103516 C619.007812,152.078796 617.59409,155.438137 614.766602,158.181641 C611.939113,160.925144 608.565775,162.296875 604.646484,162.296875 C600.615214,162.296875 597.213881,160.883152 594.442383,158.055664 C591.670885,155.228176 590.285156,151.882832 590.285156,148.019531 C590.285156,144.100241 591.712876,140.768894 594.568359,138.025391 C597.423842,135.281887 600.783184,133.910156 604.646484,133.910156 Z M591.208984,172.962891 L617.832031,172.962891 L617.832031,253 L591.208984,253 L591.208984,172.962891 Z M668.642578,171.115234 C679.672581,171.115234 688.714808,174.754521 695.769531,182.033203 C702.824254,189.311885 706.351562,199.501888 706.351562,212.603516 C706.351562,225.033265 702.964227,235.181276 696.189453,243.047852 C689.41468,250.914427 680.204485,254.847656 668.558594,254.847656 C656.912702,254.847656 647.84248,250.956419 641.347656,243.173828 C634.852832,235.391237 631.605469,225.48118 631.605469,213.443359 C631.605469,200.90163 635.006802,190.711628 641.80957,182.873047 C648.612339,175.034466 657.556585,171.115234 668.642578,171.115234 Z M668.894531,191.607422 C665.591129,191.607422 663.099618,193.385073 661.419922,196.94043 C659.740226,200.495786 658.900391,205.82874 658.900391,212.939453 C658.900391,219.938186 659.726229,225.201154 661.37793,228.728516 C663.029631,232.255877 665.507145,234.019531 668.810547,234.019531 C672.169939,234.019531 674.675447,232.269874 676.327148,228.770508 C677.978849,225.271141 678.804688,220.02217 678.804688,213.023438 C678.804688,205.856735 677.978849,200.495786 676.327148,196.94043 C674.675447,193.385073 672.197933,191.607422 668.894531,191.607422 Z"></path>
        </g>
    </g>
</svg>