<?xml version="1.0" encoding="UTF-8"?>
<svg width="1554px" height="1727px" viewBox="0 0 1554 1727" version="1.1" xmlns="http://www.w3.org/2000/svg" xmlns:xlink="http://www.w3.org/1999/xlink">
    <!-- Generator: Sketch 52.6 (67491) - http://www.bohemiancoding.com/sketch -->
    <title>Group 4</title>
    <desc>Created with Sketch.</desc>
    <g stroke="none" stroke-width="1" fill="none" fill-rule="evenodd">
        <g transform="translate(-260.000000, -86.000000)">
            <g>
                <polygon points="0 0 2073 0 2073 2073 0 2073"></polygon>
                <path d="M1428.09,954.681 L1336.57667,863.15 L915.27,1284.538 L732.243333,1101.476 L640.73,1193.007 L915.27,1467.6 L1428.09,954.681 Z M1641.33333,258.7 L1555,258.7 L1555,86 L1382.33333,86 L1382.33333,258.7 L691.666667,258.7 L691.666667,86 L519,86 L519,258.7 L432.666667,258.7 C336.836667,258.7 260.863333,336.415 260.863333,431.4 L260,1640.3 C260,1735.285 336.836667,1813 432.666667,1813 L1641.33333,1813 C1736.3,1813 1814,1735.285 1814,1640.3 L1814,431.4 C1814,336.415 1736.3,258.7 1641.33333,258.7 Z M1641.33333,1640.3 L432.666667,1640.3 L432.666667,690.45 L1641.33333,690.45 L1641.33333,1640.3 Z" fill="#000000" fill-rule="nonzero"></path>
            </g>
            <path d="M1559.51367,507.230469 C1563.48895,507.230469 1566.75031,508.546211 1569.29785,511.177734 C1571.84539,513.809258 1573.11914,516.944643 1573.11914,520.583984 C1573.11914,524.279315 1571.83139,527.428698 1569.25586,530.032227 C1566.68033,532.635755 1563.60093,533.9375 1560.01758,533.9375 C1556.49022,533.9375 1553.43881,532.635755 1550.86328,530.032227 C1548.28775,527.428698 1547,524.30731 1547,520.667969 C1547,516.860658 1548.31574,513.669284 1550.94727,511.09375 C1553.57879,508.518216 1556.43423,507.230469 1559.51367,507.230469 Z M1597.63672,413 C1601.27606,413 1604.57941,414.315742 1607.54688,416.947266 C1610.51434,419.578789 1611.99805,422.99412 1611.99805,427.193359 C1611.99805,431.16864 1610.58432,434.527981 1607.75684,437.271484 C1604.92935,440.014988 1601.55601,441.386719 1597.63672,441.386719 C1593.60545,441.386719 1590.20412,439.972996 1587.43262,437.145508 C1584.66112,434.31802 1583.27539,430.972676 1583.27539,427.109375 C1583.27539,423.190085 1584.70311,419.858738 1587.55859,417.115234 C1590.41408,414.371731 1593.77342,413 1597.63672,413 Z M1584.19922,452.052734 L1610.82227,452.052734 L1610.82227,532.089844 L1584.19922,532.089844 L1584.19922,452.052734 Z M1661.63281,450.205078 C1672.66282,450.205078 1681.70504,453.844365 1688.75977,461.123047 C1695.81449,468.401729 1699.3418,478.591731 1699.3418,491.693359 C1699.3418,504.123109 1695.95446,514.27112 1689.17969,522.137695 C1682.40491,530.004271 1673.19472,533.9375 1661.54883,533.9375 C1649.90294,533.9375 1640.83271,530.046263 1634.33789,522.263672 C1627.84307,514.481081 1624.5957,504.571024 1624.5957,492.533203 C1624.5957,479.991474 1627.99704,469.801471 1634.7998,461.962891 C1641.60257,454.12431 1650.54682,450.205078 1661.63281,450.205078 Z M1661.88477,470.697266 C1658.58136,470.697266 1656.08985,472.474917 1654.41016,476.030273 C1652.73046,479.58563 1651.89062,484.918584 1651.89062,492.029297 C1651.89062,499.02803 1652.71646,504.290998 1654.36816,507.818359 C1656.01987,511.345721 1658.49738,513.109375 1661.80078,513.109375 C1665.16017,513.109375 1667.66568,511.359718 1669.31738,507.860352 C1670.96908,504.360985 1671.79492,499.112014 1671.79492,492.113281 C1671.79492,484.946579 1670.96908,479.58563 1669.31738,476.030273 C1667.66568,472.474917 1665.18817,470.697266 1661.88477,470.697266 Z" fill="#FFFFFF"></path>
            <path d="M442.148438,525.910156 C431.902293,531.677112 421.731164,533.9375 412.884766,533.9375 C401.350854,533.9375 391.98669,530.046263 384.791992,522.263672 C377.597295,514.481081 374,504.515035 374,492.365234 C374,480.607363 377.401333,470.641317 384.204102,462.466797 C391.00687,454.292277 400.091089,450.205078 411.457031,450.205078 C421.535207,450.205078 429.597626,453.704392 435.644531,460.703125 C441.691436,467.701858 444.714844,477.080019 444.714844,488.837891 L444.714844,495.472656 L400.856445,495.472656 C400.856445,495.472656 399.245117,504.053585 403.208008,509.162109 C407.170898,514.270634 412.750013,516.233525 419.324219,515.042969 C429.758789,513.15332 432.401367,510.742187 435.644531,509.162109 L442.148438,525.910156 Z M421.367188,481.279297 L421.367188,478.591797 C421.367188,474.952456 420.415374,471.845065 418.511719,469.269531 C416.608063,466.693998 414.22853,465.40625 411.373047,465.40625 C408.013655,465.40625 405.424163,466.721992 403.604492,469.353516 C401.784822,471.985039 400.735027,475.96026 400.455078,481.279297 L421.367188,481.279297 Z M499.388672,414.931641 L526.179688,414.931641 L526.179688,532.089844 L502.580078,532.089844 L500.144531,522.767578 C497.624987,526.462909 494.881525,529.248363 491.914062,531.124023 C488.9466,532.999684 485.755225,533.9375 482.339844,533.9375 C474.221314,533.9375 467.614609,529.780315 462.519531,521.46582 C457.424454,513.151326 454.876953,503.535211 454.876953,492.617188 C454.876953,481.251245 457.606418,471.341188 463.06543,462.886719 C468.524441,454.432249 475.481078,450.205078 483.935547,450.205078 C486.511081,450.205078 489.086576,450.750971 491.662109,451.842773 C494.237643,452.934576 496.813138,454.600249 499.388672,456.839844 L499.388672,414.931641 Z M499.388672,476.912109 C498.212885,475.344393 497.009121,474.168624 495.777344,473.384766 C494.545567,472.600908 493.257819,472.208984 491.914062,472.208984 C488.83462,472.208984 486.371103,473.972639 484.523438,477.5 C482.675772,481.027361 481.751953,485.702445 481.751953,491.525391 C481.751953,497.124377 482.63378,501.70148 484.397461,505.256836 C486.161142,508.812192 488.498683,510.589844 491.410156,510.589844 C493.9297,510.589844 495.889316,509.288099 497.289062,506.68457 C498.688809,504.081042 499.388672,500.959654 499.388672,497.320312 L499.388672,476.912109 Z M556.582031,413 C560.221372,413 563.524725,414.315742 566.492188,416.947266 C569.45965,419.578789 570.943359,422.99412 570.943359,427.193359 C570.943359,431.16864 569.529637,434.527981 566.702148,437.271484 C563.87466,440.014988 560.501322,441.386719 556.582031,441.386719 C552.550761,441.386719 549.149428,439.972996 546.37793,437.145508 C543.606431,434.31802 542.220703,430.972676 542.220703,427.109375 C542.220703,423.190085 543.648423,419.858738 546.503906,417.115234 C549.359389,414.371731 552.718731,413 556.582031,413 Z M543.144531,452.052734 L569.767578,452.052734 L569.767578,532.089844 L543.144531,532.089844 L543.144531,452.052734 Z M594.291016,427.949219 L616.462891,427.949219 L616.462891,452.052734 L629.732422,452.052734 L629.732422,471.621094 L617.638672,471.621094 L617.638672,504.375 C617.638672,509.414088 619.654277,511.933594 623.685547,511.933594 C625.645192,511.933594 627.660797,511.177742 629.732422,509.666016 L629.732422,531.333984 C624.805314,533.06967 619.794296,533.9375 614.699219,533.9375 C606.412719,533.9375 600.323913,531.963887 596.432617,528.016602 C592.541322,524.069316 590.595703,517.952515 590.595703,509.666016 L590.595703,471.621094 L580.769531,471.621094 L580.769531,452.052734 L592.107422,452.052734 L594.291016,427.949219 Z M676.091797,450.205078 C687.1218,450.205078 696.164027,453.844365 703.21875,461.123047 C710.273473,468.401729 713.800781,478.591731 713.800781,491.693359 C713.800781,504.123109 710.413445,514.27112 703.638672,522.137695 C696.863898,530.004271 687.653704,533.9375 676.007812,533.9375 C664.361921,533.9375 655.291699,530.046263 648.796875,522.263672 C642.302051,514.481081 639.054688,504.571024 639.054688,492.533203 C639.054688,479.991474 642.456021,469.801471 649.258789,461.962891 C656.061557,454.12431 665.005804,450.205078 676.091797,450.205078 Z M676.34375,470.697266 C673.040348,470.697266 670.548837,472.474917 668.869141,476.030273 C667.189445,479.58563 666.349609,484.918584 666.349609,492.029297 C666.349609,499.02803 667.175447,504.290998 668.827148,507.818359 C670.478849,511.345721 672.956364,513.109375 676.259766,513.109375 C679.619157,513.109375 682.124666,511.359718 683.776367,507.860352 C685.428068,504.360985 686.253906,499.112014 686.253906,492.113281 C686.253906,484.946579 685.428068,479.58563 683.776367,476.030273 C682.124666,472.474917 679.647152,470.697266 676.34375,470.697266 Z M752.517578,462.634766 C754.141284,458.491516 756.128894,455.384125 758.480469,453.3125 C760.832043,451.240875 763.575505,450.205078 766.710938,450.205078 C768.726573,450.205078 770.88215,450.820957 773.177734,452.052734 L773.177734,477.248047 C770.434231,475.90429 767.94272,475.232422 765.703125,475.232422 C762.287743,475.232422 759.460298,476.61815 757.220703,479.389648 C754.981109,482.161147 753.861328,485.702452 753.861328,490.013672 L753.861328,532.089844 L726.818359,532.089844 L726.818359,452.052734 L749.830078,452.052734 L752.517578,462.634766 Z M796.609375,413 C800.248716,413 803.552068,414.315742 806.519531,416.947266 C809.486994,419.578789 810.970703,422.99412 810.970703,427.193359 C810.970703,431.16864 809.55698,434.527981 806.729492,437.271484 C803.902004,440.014988 800.528665,441.386719 796.609375,441.386719 C792.578105,441.386719 789.176772,439.972996 786.405273,437.145508 C783.633775,434.31802 782.248047,430.972676 782.248047,427.109375 C782.248047,423.190085 783.675767,419.858738 786.53125,417.115234 C789.386733,414.371731 792.746074,413 796.609375,413 Z M783.171875,452.052734 L809.794922,452.052734 L809.794922,532.089844 L783.171875,532.089844 L783.171875,452.052734 Z M831.210938,456.671875 C840.337285,452.360656 848.987589,450.205078 857.162109,450.205078 C863.209015,450.205078 868.48598,451.26887 872.993164,453.396484 C877.500348,455.524099 881.293604,458.967424 884.373047,463.726562 C887.452489,468.485701 888.992188,474.56051 888.992188,481.951172 L888.992188,508.826172 C888.992188,516.608763 890.587875,524.363243 893.779297,532.089844 L867.072266,532.089844 C866.064448,529.850249 865.252607,527.302749 864.636719,524.447266 C862.005195,527.582698 859.247736,529.948234 856.364258,531.543945 C853.48078,533.139656 850.443375,533.9375 847.251953,533.9375 C841.037078,533.9375 835.480168,531.459986 830.581055,526.504883 C825.681942,521.54978 823.232422,515.516963 823.232422,508.40625 C823.232422,492.393149 837.033716,482.623065 864.636719,479.095703 C864.02083,476.18423 862.509127,474.000658 860.101562,472.544922 C857.693998,471.089185 854.390646,470.361328 850.191406,470.361328 C844.032521,470.361328 837.705762,472.880834 831.210938,477.919922 L831.210938,456.671875 Z M864.636719,492.365234 C853.438746,493.373052 847.839844,497.544234 847.839844,504.878906 C847.839844,507.62241 848.679679,509.945954 850.359375,511.849609 C852.039071,513.753265 854.026681,514.705078 856.322266,514.705078 C859.009779,514.705078 861.067376,513.557303 862.495117,511.261719 C863.922859,508.966134 864.636719,506.0827 864.636719,502.611328 L864.636719,492.365234 Z M904.865234,414.931641 L931.572266,414.931641 L931.572266,532.089844 L904.865234,532.089844 L904.865234,414.931641 Z" fill="#FFFFFF"></path>
            <path d="M1052.05664,523.755859 C1044.65039,532.005859 1033.22854,532.005859 1027.68555,532.005859 C1017.94331,532.005859 1009.72692,527.988647 1003.03613,519.954102 C996.345344,511.919556 993,502.023496 993,490.265625 C993,478.563744 996.429328,468.639689 1003.28809,460.493164 C1010.14684,452.346639 1018.72716,448.273437 1029.0293,448.273437 C1033.56448,448.273437 1044.65039,450.419922 1052.05664,456.837891 L1044.65039,475.736328 C1041.01105,473.104805 1037.76369,471.789062 1034.9082,471.789062 C1030.82094,471.789062 1027.37762,473.468733 1024.57812,476.828125 C1021.77863,480.187517 1020.37891,484.442683 1020.37891,489.59375 C1020.37891,494.744817 1021.79263,499.069969 1024.62012,502.569336 C1027.44761,506.068702 1030.76495,507.818359 1034.57227,507.818359 C1037.87567,507.818359 1041.23501,506.33465 1044.65039,503.367188 L1052.05664,523.755859 Z M1067.09883,454.740234 C1076.22518,450.429015 1084.87548,448.273438 1093.05,448.273438 C1099.09691,448.273438 1104.37387,449.337229 1108.88105,451.464844 C1113.38824,453.592459 1117.1815,457.035783 1120.26094,461.794922 C1123.34038,466.55406 1124.88008,472.628869 1124.88008,480.019531 L1124.88008,506.894531 C1124.88008,514.677122 1126.47577,522.431602 1129.66719,530.158203 L1102.96016,530.158203 C1101.95234,527.918609 1101.1405,525.371108 1100.52461,522.515625 C1097.89309,525.651057 1095.13563,528.016594 1092.25215,529.612305 C1089.36867,531.208016 1086.33127,532.005859 1083.13984,532.005859 C1076.92497,532.005859 1071.36806,529.528345 1066.46895,524.573242 C1061.56983,519.618139 1059.12031,513.585322 1059.12031,506.474609 C1059.12031,490.461508 1072.92161,480.691424 1100.52461,477.164062 C1099.90872,474.25259 1098.39702,472.069018 1095.98945,470.613281 C1093.58189,469.157545 1090.27854,468.429688 1086.0793,468.429688 C1079.92041,468.429688 1073.59365,470.949194 1067.09883,475.988281 L1067.09883,454.740234 Z M1100.52461,490.433594 C1089.32664,491.441411 1083.72773,495.612594 1083.72773,502.947266 C1083.72773,505.690769 1084.56757,508.014313 1086.24727,509.917969 C1087.92696,511.821624 1089.91457,512.773438 1092.21016,512.773438 C1094.89767,512.773438 1096.95527,511.625663 1098.38301,509.330078 C1099.81075,507.034494 1100.52461,504.151059 1100.52461,500.679688 L1100.52461,490.433594 Z M1141.05313,413 L1167.76016,413 L1167.76016,530.158203 L1141.05313,530.158203 L1141.05313,413 Z M1288.15313,458.435547 C1290.5047,455.020165 1293.17818,452.472665 1296.17363,450.792969 C1299.16909,449.113273 1302.51443,448.273438 1306.20977,448.273438 C1312.53662,448.273438 1317.81359,450.582985 1322.04082,455.202148 C1326.26806,459.821312 1328.38164,465.574184 1328.38164,472.460938 L1328.38164,530.158203 L1301.75859,530.158203 L1301.75859,478.003906 C1301.75859,473.468727 1300.07892,471.201172 1296.71953,471.201172 C1294.36796,471.201172 1292.49232,472.43293 1291.09258,474.896484 C1289.69283,477.360038 1288.99297,480.803363 1288.99297,485.226562 L1288.99297,530.158203 L1262.62188,530.158203 L1262.62188,450.121094 L1285.54961,450.121094 L1288.15313,458.435547 Z M1384.29492,413 L1411.08594,413 L1411.08594,530.158203 L1387.48633,530.158203 L1385.05078,520.835938 C1382.53124,524.531268 1379.78778,527.316722 1376.82031,529.192383 C1373.85285,531.068043 1370.66148,532.005859 1367.24609,532.005859 C1359.12756,532.005859 1352.52086,527.848674 1347.42578,519.53418 C1342.3307,511.219685 1339.7832,501.60357 1339.7832,490.685547 C1339.7832,479.319605 1342.51267,469.409547 1347.97168,460.955078 C1353.43069,452.500609 1360.38733,448.273438 1368.8418,448.273438 C1371.41733,448.273438 1373.99283,448.81933 1376.56836,449.911133 C1379.14389,451.002935 1381.71939,452.668609 1384.29492,454.908203 L1384.29492,413 Z M1384.29492,474.980469 C1383.11913,473.412753 1381.91537,472.236983 1380.68359,471.453125 C1379.45182,470.669267 1378.16407,470.277344 1376.82031,470.277344 C1373.74087,470.277344 1371.27735,472.040998 1369.42969,475.568359 C1367.58202,479.095721 1366.6582,483.770804 1366.6582,489.59375 C1366.6582,495.192736 1367.54003,499.769839 1369.30371,503.325195 C1371.06739,506.880552 1373.40493,508.658203 1376.31641,508.658203 C1378.83595,508.658203 1380.79557,507.356458 1382.19531,504.75293 C1383.59506,502.149401 1384.29492,499.028013 1384.29492,495.388672 L1384.29492,474.980469 Z M1428.62617,454.740234 C1437.75252,450.429015 1446.40282,448.273438 1454.57734,448.273438 C1460.62425,448.273438 1465.90121,449.337229 1470.4084,451.464844 C1474.91558,453.592459 1478.70884,457.035783 1481.78828,461.794922 C1484.86772,466.55406 1486.40742,472.628869 1486.40742,480.019531 L1486.40742,506.894531 C1486.40742,514.677122 1488.00311,522.431602 1491.19453,530.158203 L1464.4875,530.158203 C1463.47968,527.918609 1462.66784,525.371108 1462.05195,522.515625 C1459.42043,525.651057 1456.66297,528.016594 1453.77949,529.612305 C1450.89601,531.208016 1447.85861,532.005859 1444.66719,532.005859 C1438.45231,532.005859 1432.8954,529.528345 1427.99629,524.573242 C1423.09718,519.618139 1420.64766,513.585322 1420.64766,506.474609 C1420.64766,490.461508 1434.44895,480.691424 1462.05195,477.164062 C1461.43606,474.25259 1459.92436,472.069018 1457.5168,470.613281 C1455.10923,469.157545 1451.80588,468.429688 1447.60664,468.429688 C1441.44776,468.429688 1435.121,470.949194 1428.62617,475.988281 L1428.62617,454.740234 Z M1462.05195,490.433594 C1450.85398,491.441411 1445.25508,495.612594 1445.25508,502.947266 C1445.25508,505.690769 1446.09491,508.014313 1447.77461,509.917969 C1449.45431,511.821624 1451.44192,512.773438 1453.7375,512.773438 C1456.42501,512.773438 1458.48261,511.625663 1459.91035,509.330078 C1461.33809,507.034494 1462.05195,504.151059 1462.05195,500.679688 L1462.05195,490.433594 Z M1526.52383,460.703125 C1528.14753,456.559875 1530.13514,453.452484 1532.48672,451.380859 C1534.83829,449.309234 1537.58176,448.273438 1540.71719,448.273438 C1542.73282,448.273438 1544.8884,448.889317 1547.18398,450.121094 L1547.18398,475.316406 C1544.44048,473.97265 1541.94897,473.300781 1539.70938,473.300781 C1536.29399,473.300781 1533.46655,474.68651 1531.22695,477.458008 C1528.98736,480.229506 1527.86758,483.770812 1527.86758,488.082031 L1527.86758,530.158203 L1500.82461,530.158203 L1500.82461,450.121094 L1523.83633,450.121094 L1526.52383,460.703125 Z M1246.86523,523.863281 C1236.61909,529.630237 1226.44796,531.890625 1217.60156,531.890625 C1206.06765,531.890625 1196.70349,527.999388 1189.50879,520.216797 C1182.31409,512.434206 1178.7168,502.46816 1178.7168,490.318359 C1178.7168,478.560488 1182.11813,468.594442 1188.9209,460.419922 C1195.72367,452.245402 1204.80789,448.158203 1216.17383,448.158203 C1226.252,448.158203 1234.31442,451.657517 1240.36133,458.65625 C1246.40823,465.654983 1249.43164,475.033144 1249.43164,486.791016 L1249.43164,493.425781 L1205.57324,493.425781 C1205.57324,493.425781 1203.96191,502.00671 1207.9248,507.115234 C1211.8877,512.223759 1217.46681,514.18665 1224.04102,512.996094 C1234.47559,511.106445 1237.11816,508.695312 1240.36133,507.115234 L1246.86523,523.863281 Z M1225.62891,479.03125 L1225.62891,476.34375 C1225.62891,472.704409 1224.67709,469.597018 1222.77344,467.021484 C1220.86978,464.445951 1218.49025,463.158203 1215.63477,463.158203 C1212.27537,463.158203 1209.68588,464.473945 1207.86621,467.105469 C1206.04654,469.736992 1204.99675,473.712213 1204.7168,479.03125 L1225.62891,479.03125 Z" fill="#FFFFFF"></path>
        </g>
    </g>
</svg>